<svg width="40" height="40" viewBox="0 0 40 40" fill="none" xmlns="http://www.w3.org/2000/svg">
<path d="M20 30C20 35.5228 24.4772 40 30 40C35.5228 40 40 35.5228 40 30C40 24.4772 35.5228 20 30 20H20V30Z" fill="#FFD11A"/>
<path d="M20 10C20 4.47715 15.5228 0 10 0C4.47715 0 0 4.47715 0 10C0 15.5228 4.47715 20 10 20H20V10Z" fill="#FFD11A"/>
<path fill-rule="evenodd" clip-rule="evenodd" d="M30 0C24.4772 0 20 4.47715 20 10V20H30C35.5228 20 40 15.5228 40 10C40 4.47715 35.5228 0 30 0ZM35 10C35 12.7614 32.7614 15 30 15C27.2386 15 25 12.7614 25 10C25 7.23858 27.2386 5 30 5C32.7614 5 35 7.23858 35 10Z" fill="#404040"/>
<path fill-rule="evenodd" clip-rule="evenodd" d="M10 40C15.5228 40 20 35.5228 20 30V20H10C4.47715 20 0 24.4772 0 30C0 35.5228 4.47715 40 10 40ZM15 30C15 32.7614 12.7614 35 10 35C7.23858 35 5 32.7614 5 30C5 27.2386 7.23858 25 10 25C12.7614 25 15 27.2386 15 30Z" fill="#404040"/>
</svg>
